<?xml version="1.0" encoding="UTF-8"?>
<!DOCTYPE svg PUBLIC "-//W3C//DTD SVG 1.1//EN" "http://www.w3.org/Graphics/SVG/1.1/DTD/svg11.dtd">
<svg xmlns="http://www.w3.org/2000/svg" version="1.1" width="512px" height="512px" style="shape-rendering:geometricPrecision; text-rendering:geometricPrecision; image-rendering:optimizeQuality; fill-rule:evenodd; clip-rule:evenodd" xmlns:xlink="http://www.w3.org/1999/xlink">
<g><path style="opacity:1" fill="#f59338" d="M 423.5,90.5 C 398.806,114.527 374.473,138.86 350.5,163.5C 350.167,163.5 349.833,163.5 349.5,163.5C 335.47,128.13 309.804,106.297 272.5,98C 242.864,96.3906 213.197,96.0573 183.5,97C 150.238,103.926 125.071,122.092 108,151.5C 102.91,161.621 99.5762,172.287 98,183.5C 97.3333,230.833 97.3333,278.167 98,325.5C 100.823,348.808 110.323,368.808 126.5,385.5C 114.449,397.05 102.449,408.883 90.5,421C 89.9056,421.464 89.2389,421.631 88.5,421.5C 39.2809,370.707 16.7809,309.707 21,238.5C 28.7578,159.1 65.9244,97.9329 132.5,55C 201.913,14.997 273.913,9.66367 348.5,39C 377.008,51.2387 402.008,68.4054 423.5,90.5 Z"/></g>
<g><path style="opacity:1" fill="#c87527" d="M 423.5,90.5 C 459.459,126.417 481.125,169.751 488.5,220.5C 442.585,201.639 396.585,182.972 350.5,164.5C 350.5,164.167 350.5,163.833 350.5,163.5C 374.473,138.86 398.806,114.527 423.5,90.5 Z"/></g>
<g><path style="opacity:1" fill="#fefdfd" d="M 349.5,163.5 C 305.473,208.194 261.14,252.527 216.5,296.5C 216.167,296.5 215.833,296.5 215.5,296.5C 207.493,296.334 199.493,296.5 191.5,297C 181.08,302.01 177.246,310.177 180,321.5C 181.277,323.747 182.777,325.747 184.5,327.5C 184.5,327.833 184.5,328.167 184.5,328.5C 165.167,347.167 146.167,366.167 127.5,385.5C 127.167,385.5 126.833,385.5 126.5,385.5C 110.323,368.808 100.823,348.808 98,325.5C 97.3333,278.167 97.3333,230.833 98,183.5C 99.5762,172.287 102.91,161.621 108,151.5C 125.071,122.092 150.238,103.926 183.5,97C 213.197,96.0573 242.864,96.3906 272.5,98C 309.804,106.297 335.47,128.13 349.5,163.5 Z"/></g>
<g><path style="opacity:1" fill="#dbdbdb" d="M 349.5,163.5 C 349.833,163.5 350.167,163.5 350.5,163.5C 350.5,163.833 350.5,164.167 350.5,164.5C 354.374,177.189 356.541,190.189 357,203.5C 359.167,211 364,215.833 371.5,218C 380.5,218.333 389.5,218.667 398.5,219C 407.342,221.176 412.842,226.676 415,235.5C 415.667,263.5 415.667,291.5 415,319.5C 409.768,366.135 384.935,396.968 340.5,412C 333.674,414.232 326.674,415.565 319.5,416C 274.475,416.958 229.475,416.624 184.5,415C 162.976,411.404 144.309,402.237 128.5,387.5C 128.167,386.833 127.833,386.167 127.5,385.5C 146.167,366.167 165.167,347.167 184.5,328.5C 187.752,330.866 191.419,332.366 195.5,333C 236.5,333.667 277.5,333.667 318.5,333C 329.743,329.737 334.576,322.237 333,310.5C 331.167,303.333 326.667,298.833 319.5,297C 285.168,296.5 250.835,296.333 216.5,296.5C 261.14,252.527 305.473,208.194 349.5,163.5 Z"/></g>
<g><path style="opacity:1" fill="#a15208" d="M 350.5,164.5 C 396.585,182.972 442.585,201.639 488.5,220.5C 499.603,309.035 471.27,382.202 403.5,440C 335.377,491.3 260.377,504.3 178.5,479C 176.934,478.392 175.6,477.558 174.5,476.5C 158.899,446.963 143.565,417.297 128.5,387.5C 144.309,402.237 162.976,411.404 184.5,415C 229.475,416.624 274.475,416.958 319.5,416C 326.674,415.565 333.674,414.232 340.5,412C 384.935,396.968 409.768,366.135 415,319.5C 415.667,291.5 415.667,263.5 415,235.5C 412.842,226.676 407.342,221.176 398.5,219C 389.5,218.667 380.5,218.333 371.5,218C 364,215.833 359.167,211 357,203.5C 356.541,190.189 354.374,177.189 350.5,164.5 Z"/></g>
<g><path style="opacity:1" fill="#f69338" d="M 190.5,180.5 C 215.552,180.038 240.552,180.538 265.5,182C 277.549,190.248 279.549,200.415 271.5,212.5C 268.645,215.426 265.311,217.593 261.5,219C 238.5,219.667 215.5,219.667 192.5,219C 179.716,213.435 175.55,203.935 180,190.5C 182.738,186.26 186.238,182.926 190.5,180.5 Z"/></g>
<g><path style="opacity:0.998" fill="#f69339" d="M 215.5,296.5 C 205.5,307.167 195.167,317.5 184.5,327.5C 182.777,325.747 181.277,323.747 180,321.5C 177.246,310.177 181.08,302.01 191.5,297C 199.493,296.5 207.493,296.334 215.5,296.5 Z"/></g>
<g><path style="opacity:1" fill="#c87527" d="M 215.5,296.5 C 215.833,296.5 216.167,296.5 216.5,296.5C 250.835,296.333 285.168,296.5 319.5,297C 326.667,298.833 331.167,303.333 333,310.5C 334.576,322.237 329.743,329.737 318.5,333C 277.5,333.667 236.5,333.667 195.5,333C 191.419,332.366 187.752,330.866 184.5,328.5C 184.5,328.167 184.5,327.833 184.5,327.5C 195.167,317.5 205.5,307.167 215.5,296.5 Z"/></g>
<g><path style="opacity:1" fill="#c87527" d="M 126.5,385.5 C 126.833,385.5 127.167,385.5 127.5,385.5C 127.833,386.167 128.167,386.833 128.5,387.5C 143.565,417.297 158.899,446.963 174.5,476.5C 159.631,471.899 145.631,465.399 132.5,457C 116.198,447.199 101.532,435.366 88.5,421.5C 89.2389,421.631 89.9056,421.464 90.5,421C 102.449,408.883 114.449,397.05 126.5,385.5 Z"/></g>
</svg>
